<?xml version="1.0" standalone="no"?>
<!DOCTYPE svg PUBLIC "-//W3C//DTD SVG 20010904//EN"
 "http://www.w3.org/TR/2001/REC-SVG-20010904/DTD/svg10.dtd">
<svg version="1.0" xmlns="http://www.w3.org/2000/svg"
 width="1000.000000pt" height="1000.000000pt" viewBox="0 0 1000.000000 1000.000000"
 preserveAspectRatio="xMidYMid meet">

<g transform="translate(0.000000,1000.000000) scale(0.100000,-0.100000)"
fill="#000000" stroke="none">
<path d="M6075 8325 c4 -22 10 -53 15 -70 34 -110 55 -188 105 -385 15 -58 29
-113 32 -122 2 -10 9 -18 14 -18 6 0 7 9 3 23 -4 12 -10 36 -15 52 -4 17 -37
140 -73 275 -66 246 -92 324 -81 245z"/>
<path d="M4260 8200 c-47 -3 -91 -9 -98 -13 -15 -10 -30 -46 -42 -102 -21 -96
-130 -507 -140 -526 -5 -8 -28 -24 -52 -34 -24 -10 -85 -38 -136 -62 -51 -23
-95 -43 -97 -43 -9 0 -210 -113 -252 -142 -23 -15 -44 -28 -47 -28 -8 0 -137
-92 -236 -169 -110 -85 -175 -145 -296 -273 -168 -177 -188 -202 -319 -398
-43 -63 -86 -128 -97 -144 -88 -126 -288 -592 -313 -729 -4 -20 -11 -40 -16
-43 -5 -3 -9 -18 -9 -34 0 -16 -4 -40 -9 -53 -11 -27 -44 -228 -59 -352 -22
-179 -21 -415 4 -667 l16 -168 -231 -231 c-192 -194 -231 -237 -231 -261 0
-15 5 -28 10 -28 6 0 10 6 10 12 0 7 106 119 236 249 l237 237 -19 148 c-42
346 -14 778 72 1113 70 272 203 582 353 819 152 242 281 401 472 587 264 257
551 445 914 600 61 25 113 50 117 53 3 4 23 70 43 147 20 77 48 183 62 235 14
52 33 128 43 168 10 40 24 80 31 88 10 12 125 14 865 12 470 -2 854 0 854 3 0
27 -49 29 -791 32 -420 1 -802 0 -849 -3z"/>
<path d="M6080 7520 c0 -6 8 -13 18 -17 69 -25 304 -134 387 -181 264 -147
444 -283 668 -501 59 -58 107 -101 107 -95 -1 12 -169 186 -241 250 -95 84
-111 97 -204 165 -212 155 -365 243 -603 348 -93 41 -132 50 -132 31z"/>
<path d="M4542 7387 c-45 -39 -110 -104 -145 -142 -34 -39 -133 -150 -220
-247 -86 -97 -172 -194 -190 -216 -73 -92 -292 -328 -451 -487 -94 -94 -191
-197 -216 -230 -60 -79 -84 -82 -204 -26 -47 23 -88 41 -90 41 -3 0 -31 12
-63 26 -32 14 -98 44 -148 65 -49 22 -114 51 -142 65 -52 25 -86 29 -82 9 1
-5 61 -36 133 -68 72 -32 145 -64 161 -71 206 -93 338 -146 365 -146 23 0 39
8 56 28 13 15 51 61 86 102 34 41 137 149 228 240 92 91 213 219 271 284 57
66 127 145 154 176 28 31 80 89 116 130 197 224 416 470 447 503 59 61 23 42
-66 -36z"/>
<path d="M4825 7395 c-5 -11 -12 -126 -15 -255 l-5 -235 -80 -17 c-290 -63
-402 -99 -495 -159 -33 -21 -60 -41 -60 -44 0 -4 11 0 85 30 17 7 48 19 70 26
22 7 45 16 50 20 6 4 26 10 45 14 19 4 40 11 45 14 6 4 46 15 90 25 44 10 96
22 115 27 19 4 61 11 92 15 32 4 62 12 68 19 7 8 9 107 8 276 -2 184 -6 258
-13 244z"/>
<path d="M5550 7335 c25 -28 63 -72 85 -98 22 -27 41 -44 43 -38 2 6 -11 26
-30 45 -18 19 -46 49 -62 68 -17 18 -41 42 -55 53 -15 10 -6 -3 19 -30z"/>
<path d="M5715 7147 c29 -36 41 -42 30 -16 -3 8 -18 23 -32 33 l-27 20 29 -37z"/>
<path d="M5760 7096 c0 -3 11 -17 25 -32 97 -104 118 -125 123 -119 4 4 0 10
-8 15 -8 5 -39 38 -69 74 -48 57 -71 78 -71 62z"/>
<path d="M5920 6923 c0 -5 9 -18 20 -28 11 -10 20 -14 20 -8 0 5 -9 18 -20 28
-11 10 -20 14 -20 8z"/>
<path d="M5241 6891 c-24 -16 -3 -28 60 -35 34 -3 78 -10 98 -15 20 -5 68 -17
106 -26 65 -16 132 -36 180 -55 95 -37 233 -92 244 -97 9 -4 12 -2 8 4 -10 16
-142 90 -180 102 -17 5 -63 21 -101 35 -39 14 -120 37 -180 51 -61 14 -130 30
-154 35 -51 12 -63 12 -81 1z"/>
<path d="M5970 6864 c0 -5 21 -30 47 -54 l47 -45 -38 45 c-56 65 -56 65 -56
54z"/>
<path d="M6117 6693 c54 -62 83 -90 83 -80 0 10 -111 132 -123 136 -7 2 12
-23 40 -56z"/>
<path d="M7280 6692 c0 -5 10 -17 21 -28 22 -19 22 -19 10 3 -12 24 -31 39
-31 25z"/>
<path d="M6276 6513 c43 -49 84 -92 91 -96 23 -14 14 8 -14 33 -40 36 -123
132 -123 142 0 4 -7 8 -15 8 -10 0 15 -35 61 -87z"/>
<path d="M4823 6439 c-10 -10 -13 -73 -13 -246 0 -179 -3 -233 -12 -235 -7 -1
-240 -2 -518 -3 -479 -1 -507 -2 -540 -21 -35 -19 -34 -19 524 -22 308 -1 564
2 568 6 5 5 7 126 6 271 -2 210 -5 260 -15 250z"/>
<path d="M6402 6372 c13 -15 50 -52 83 -81 33 -29 73 -66 88 -83 16 -16 31
-27 35 -23 6 5 -83 95 -189 191 -35 33 -46 30 -17 -4z"/>
<path d="M7290 6194 c-284 -127 -302 -136 -340 -149 -19 -7 -48 -20 -65 -29
-35 -19 -97 -21 -128 -4 -21 11 -21 10 -7 -8 25 -34 43 -44 76 -44 25 0 303
116 614 257 39 18 70 42 70 55 0 17 -41 3 -220 -78z"/>
<path d="M6655 6120 c10 -11 20 -20 23 -20 3 0 -3 9 -13 20 -10 11 -20 20 -23
20 -3 0 3 -9 13 -20z"/>
<path d="M6700 6066 c0 -2 8 -10 18 -17 15 -13 16 -12 3 4 -13 16 -21 21 -21
13z"/>
<path d="M7615 6038 c-5 -31 2 -2266 7 -2355 2 -22 6 -45 11 -49 4 -4 7 542 7
1214 0 1130 -4 1313 -25 1190z"/>
<path d="M5370 5950 c-123 -5 -156 -12 -144 -31 7 -12 1131 -12 1139 1 16 26
-49 31 -452 33 -230 1 -474 0 -543 -3z"/>
<path d="M3138 5788 c-22 -19 -60 -89 -116 -220 -53 -121 -64 -154 -113 -353
-29 -115 -35 -142 -58 -285 -12 -74 -9 -64 -262 -785 -95 -270 -117 -337 -124
-385 -4 -25 -14 -62 -21 -83 -10 -28 -10 -37 -2 -35 6 2 16 17 21 34 10 32 39
114 120 344 31 85 89 252 130 370 42 118 93 266 116 328 22 62 45 145 51 185
22 137 47 267 60 312 5 17 17 57 26 90 33 119 53 174 88 247 20 42 36 79 36
84 0 5 15 34 34 65 51 86 58 122 14 87z"/>
<path d="M6566 5699 c-14 -17 -26 -36 -26 -42 0 -10 -42 -86 -151 -274 -27
-47 -46 -81 -155 -275 -131 -232 -198 -348 -256 -440 -26 -42 -48 -79 -48 -81
0 -2 -22 -42 -48 -88 -60 -104 -96 -168 -135 -239 -17 -30 -38 -67 -49 -82
-10 -14 -18 -29 -18 -33 0 -3 -20 -40 -45 -81 -26 -42 -50 -87 -56 -101 -5
-14 -27 -56 -49 -94 -22 -37 -52 -90 -66 -116 -13 -26 -36 -66 -49 -88 -14
-22 -39 -67 -56 -100 -17 -33 -39 -71 -49 -85 -9 -14 -33 -54 -52 -90 -131
-242 -211 -370 -234 -376 -28 -7 -30 -16 -9 -34 21 -18 56 -1 75 36 8 16 22
40 31 54 9 14 31 52 49 85 17 33 49 89 70 125 20 36 50 88 65 115 84 150 117
208 165 290 29 50 87 155 130 235 94 177 387 692 427 751 16 24 47 76 68 114
58 106 59 107 257 456 186 325 258 459 258 479 0 19 -18 10 -44 -21z"/>
<path d="M8091 5684 c0 -11 3 -14 6 -6 3 7 2 16 -1 19 -3 4 -6 -2 -5 -13z"/>
<path d="M8100 5647 c0 -9 7 -34 15 -54 8 -21 18 -60 24 -88 54 -286 67 -371
76 -500 11 -144 8 -458 -4 -579 -9 -83 -9 -122 -2 -129 6 -6 13 -9 15 -6 12
13 26 238 26 427 0 258 -15 408 -67 662 -33 162 -83 324 -83 267z"/>
<path d="M6737 5228 c32 -137 42 -247 42 -485 1 -134 -4 -275 -10 -315 -13
-80 -61 -269 -86 -336 -23 -62 -66 -68 -143 -17 -40 26 -255 155 -285 171 -11
6 -53 29 -92 52 -67 40 -113 53 -113 33 0 -4 29 -23 65 -40 35 -18 124 -68
197 -112 286 -174 304 -183 341 -172 20 5 37 19 46 38 8 17 18 38 23 47 4 10
8 26 8 36 0 10 3 22 7 26 10 10 30 87 51 196 12 65 16 148 17 355 0 256 -9
372 -35 460 -5 17 -15 51 -22 78 -18 70 -28 57 -11 -15z"/>
<path d="M4010 4387 c-9 -19 -35 -39 -74 -59 -32 -16 -82 -44 -110 -62 -28
-17 -60 -37 -71 -44 -11 -6 -73 -43 -137 -82 -134 -80 -156 -90 -203 -90 -39
0 -54 -15 -28 -28 46 -25 101 -3 306 120 111 67 232 137 269 156 69 35 79 50
68 92 l-7 25 -13 -28z"/>
<path d="M2906 4285 c3 -33 10 -64 15 -69 5 -6 9 -20 9 -32 0 -13 4 -25 9 -28
4 -3 11 -20 15 -37 3 -18 8 -30 11 -28 6 6 -44 219 -56 239 -6 10 -7 -5 -3
-45z"/>
<path d="M7210 4330 c0 -8 5 -22 10 -30 9 -13 10 -13 10 0 0 8 -5 22 -10 30
-9 13 -10 13 -10 0z"/>
<path d="M7251 4224 c0 -11 3 -14 6 -6 3 7 2 16 -1 19 -3 4 -6 -2 -5 -13z"/>
<path d="M8010 4184 c0 -5 97 -106 215 -224 118 -118 215 -210 215 -205 0 6
-87 98 -193 205 -211 213 -237 238 -237 224z"/>
<path d="M7271 4164 c0 -11 3 -14 6 -6 3 7 2 16 -1 19 -3 4 -6 -2 -5 -13z"/>
<path d="M7286 4120 c3 -14 11 -32 16 -40 6 -10 7 -7 2 10 -3 14 -11 32 -16
40 -6 10 -7 7 -2 -10z"/>
<path d="M2970 4048 c11 -45 30 -92 35 -86 3 2 0 18 -5 34 -5 16 -12 41 -15
57 -3 15 -9 27 -14 27 -5 0 -5 -15 -1 -32z"/>
<path d="M7310 4046 c0 -8 4 -17 9 -20 5 -4 7 3 4 14 -6 23 -13 26 -13 6z"/>
<path d="M7325 3990 c3 -5 8 -10 11 -10 2 0 4 5 4 10 0 6 -5 10 -11 10 -5 0
-7 -4 -4 -10z"/>
<path d="M7361 3903 c-1 -12 4 -25 9 -28 12 -7 12 2 0 30 -8 19 -9 19 -9 -2z"/>
<path d="M3025 3853 c-4 -29 -15 -58 -24 -66 -9 -8 -68 -45 -131 -82 -192
-113 -310 -196 -310 -216 0 -17 464 258 485 288 13 17 11 65 -3 103 -9 23 -11
20 -17 -27z"/>
<path d="M7386 3830 c3 -14 11 -32 16 -40 6 -10 7 -7 2 10 -3 14 -11 32 -16
40 -6 10 -7 7 -2 -10z"/>
<path d="M7040 3774 c0 -5 71 -52 158 -103 86 -52 193 -116 236 -143 44 -26
81 -46 83 -44 2 2 -3 21 -11 41 -12 29 -19 35 -29 27 -10 -8 -28 -1 -72 27
-33 20 -67 40 -75 45 -8 4 -33 18 -55 31 -22 13 -58 34 -80 46 -22 12 -53 32
-70 45 -32 24 -85 42 -85 28z"/>
<path d="M7411 3765 c1 -19 18 -51 18 -35 0 8 -4 22 -9 30 -5 8 -9 11 -9 5z"/>
<path d="M8708 3753 c-8 -10 -79 -130 -158 -268 -79 -137 -175 -304 -213 -370
-39 -66 -114 -196 -167 -290 -82 -143 -196 -338 -230 -395 -13 -21 -160 -278
-180 -315 -37 -67 -56 -95 -66 -99 -6 -2 -60 9 -120 25 -118 32 -271 72 -455
120 -135 34 -131 35 -239 -45 -88 -64 -310 -196 -430 -256 -47 -23 -92 -45
-101 -50 -19 -10 -120 -50 -224 -88 -234 -87 -546 -154 -849 -183 -244 -23
-645 3 -886 56 -200 45 -359 89 -467 131 -37 14 -93 35 -123 46 -70 27 -365
175 -405 204 -16 12 -48 31 -70 43 -22 11 -80 50 -130 86 -49 36 -99 70 -111
76 -21 11 -66 1 -409 -91 -82 -22 -189 -50 -237 -62 -81 -20 -105 -36 -79 -52
5 -3 91 16 192 43 101 27 238 64 304 81 66 17 141 37 167 45 l47 14 114 -79
c204 -141 475 -288 647 -352 400 -148 672 -207 1048 -228 383 -21 763 30 1178
158 253 78 590 248 837 423 l108 76 67 -17 c37 -10 164 -43 282 -75 118 -31
246 -65 285 -76 38 -10 73 -19 76 -19 4 0 30 42 60 93 29 50 125 218 215 372
89 154 174 303 189 330 15 28 31 55 35 60 4 6 121 208 260 449 138 242 258
449 266 461 22 34 -1 48 -28 18z"/>
<path d="M7441 3674 c0 -11 3 -14 6 -6 3 7 2 16 -1 19 -3 4 -6 -2 -5 -13z"/>
<path d="M6422 3641 c-30 -66 -155 -200 -285 -305 -93 -76 -203 -144 -332
-206 -160 -77 -220 -96 -390 -125 -79 -13 -154 -29 -167 -37 -22 -12 -21 -13
22 -16 25 -2 70 1 100 7 190 35 236 45 245 51 6 4 26 11 45 15 54 12 323 151
406 211 133 95 243 195 314 283 58 72 70 92 70 124 0 20 -2 37 -5 37 -4 0 -14
-17 -23 -39z"/>
<path d="M3680 3533 c0 -11 204 -210 260 -254 76 -60 329 -209 354 -209 3 0
30 -11 60 -25 30 -14 60 -25 65 -25 6 0 19 -4 29 -9 55 -30 402 -77 402 -55
-1 24 -22 32 -105 38 -49 4 -101 9 -115 10 -251 25 -651 236 -863 455 -71 74
-87 87 -87 74z"/>
<path d="M2821 3189 c-24 -5 -45 -10 -47 -12 -4 -3 147 -25 636 -93 275 -37
266 -37 255 -26 -16 16 -143 52 -182 52 -19 0 -53 4 -76 9 -23 5 -78 14 -122
20 -44 6 -143 20 -220 31 -191 28 -194 28 -244 19z"/>
<path d="M6910 3159 c-140 -21 -288 -42 -328 -48 -66 -10 -178 -48 -169 -57 2
-2 163 18 358 45 195 27 397 55 449 61 119 15 136 21 85 31 -66 13 -127 8
-395 -32z"/>
<path d="M7215 2981 c-38 -15 -99 -43 -135 -62 -102 -56 -302 -170 -340 -195
-19 -12 -152 -90 -295 -172 -143 -82 -305 -175 -360 -207 -55 -32 -116 -67
-135 -78 -19 -10 -75 -43 -125 -72 -49 -29 -146 -85 -215 -124 -69 -40 -132
-76 -140 -81 -84 -49 -245 -141 -292 -166 -52 -27 -57 -32 -43 -44 13 -11 22
-10 52 4 34 16 387 219 673 386 63 37 138 80 165 95 28 15 70 40 95 55 25 15
225 131 445 258 680 391 720 414 730 423 14 14 -4 9 -80 -20z"/>
<path d="M2825 2974 c11 -8 108 -65 215 -127 107 -61 235 -135 283 -164 48
-29 90 -53 92 -53 3 0 33 -17 67 -38 35 -21 88 -52 118 -69 30 -17 334 -192
675 -388 341 -197 627 -360 636 -362 9 -3 23 3 33 12 14 15 16 56 16 383 -1
331 -2 365 -16 347 -13 -17 -15 -58 -14 -250 3 -408 2 -442 -15 -448 -17 -7
-72 21 -270 137 -191 113 -209 123 -275 159 -30 16 -71 39 -90 52 -19 12 -80
48 -135 79 -55 32 -107 62 -115 67 -8 5 -31 17 -50 27 -57 31 -332 192 -360
211 -14 10 -40 23 -57 30 -18 8 -33 17 -33 22 0 5 -4 9 -10 9 -5 0 -31 13 -58
29 -53 31 -113 65 -212 121 -36 20 -84 48 -107 63 -24 15 -45 27 -48 27 -2 0
-30 16 -60 35 -57 37 -119 66 -190 91 -36 13 -38 12 -20 -2z"/>
</g>
</svg>
