<?xml version="1.0" standalone="no"?>
<!DOCTYPE svg PUBLIC "-//W3C//DTD SVG 20010904//EN"
 "http://www.w3.org/TR/2001/REC-SVG-20010904/DTD/svg10.dtd">
<svg version="1.0" xmlns="http://www.w3.org/2000/svg"
 width="1000.000000pt" height="1000.000000pt" viewBox="0 0 1000.000000 1000.000000"
 preserveAspectRatio="xMidYMid meet">

<g transform="translate(0.000000,1000.000000) scale(0.100000,-0.100000)"
fill="#000000" stroke="none">
<path d="M3992 8398 c-11 -14 -46 -135 -122 -428 -73 -279 -68 -270 -187 -326
-602 -285 -1037 -672 -1391 -1236 -261 -416 -410 -850 -468 -1363 -14 -122
-16 -205 -11 -450 4 -222 3 -306 -6 -321 -7 -12 -119 -130 -249 -263 -131
-133 -238 -246 -238 -251 0 -9 63 -119 404 -712 610 -1061 603 -1050 624
-1044 9 3 71 19 137 36 66 18 170 45 230 61 310 83 348 91 369 80 12 -6 62
-40 111 -76 50 -36 108 -75 130 -86 22 -12 54 -31 70 -43 40 -29 335 -177 405
-204 30 -11 86 -32 123 -46 108 -42 267 -86 467 -131 241 -53 642 -79 886 -56
303 29 615 96 849 183 104 38 205 78 224 88 9 5 54 27 101 50 120 60 342 192
430 256 108 80 104 79 239 45 184 -48 337 -88 455 -120 60 -16 114 -27 120
-25 10 4 29 32 66 99 20 37 167 294 180 315 34 56 147 251 230 395 53 94 172
301 265 460 92 160 190 330 217 378 28 48 60 94 72 102 20 15 14 21 -164 203
-308 311 -300 302 -309 358 -8 46 -9 47 -10 12 -1 -39 -16 -57 -33 -40 -6 6
-5 50 3 128 12 121 15 435 4 579 -12 175 -61 452 -110 629 -12 41 -14 61 -6
65 8 5 0 38 -23 102 -235 658 -698 1243 -1286 1624 -57 38 -190 112 -296 167
-106 54 -197 105 -204 113 -7 8 -23 40 -37 72 -13 32 -22 47 -18 33 15 -63 18
-95 6 -85 -11 11 -39 105 -65 220 -8 33 -21 85 -30 115 -8 30 -24 88 -35 128
-11 40 -23 78 -27 84 -4 6 -7 38 -8 72 l-1 61 -1036 3 c-822 2 -1039 -1 -1047
-10z m1894 -209 c27 -22 13 -29 -58 -30 l-73 0 46 -15 c25 -7 58 -26 73 -40
28 -29 28 -29 120 -359 l61 -220 31 3 c58 5 380 -150 564 -271 85 -57 241
-170 284 -207 146 -124 325 -306 326 -329 0 -9 -14 -1 -37 20 l-37 34 35 -41
c112 -128 151 -211 118 -250 -28 -34 -160 12 -347 120 -58 34 -93 53 -237 134
-44 24 -91 52 -105 62 -14 9 -50 31 -80 47 -82 45 -235 134 -320 184 -131 79
-212 125 -330 190 -63 34 -128 70 -145 79 -16 9 -66 36 -110 60 -44 24 -113
63 -153 87 -41 24 -78 43 -83 43 -22 0 -5 -25 48 -73 72 -65 131 -127 245
-259 93 -107 140 -160 185 -208 29 -30 53 -58 53 -61 0 -4 17 -24 38 -46 20
-22 71 -77 112 -124 41 -46 84 -93 95 -104 11 -12 33 -37 49 -56 50 -60 160
-181 181 -198 10 -9 54 -50 97 -91 56 -52 78 -80 76 -95 -2 -11 2 -19 8 -18 6
1 24 -11 39 -27 16 -17 24 -30 18 -30 -6 0 -21 12 -32 28 -11 15 -20 23 -20
17 0 -5 15 -28 34 -49 19 -22 35 -33 35 -26 0 9 6 8 20 -5 22 -20 27 -40 8
-29 -7 4 -10 4 -6 0 3 -4 8 -6 10 -5 2 2 14 -4 28 -14 32 -22 96 -22 140 2 19
10 46 22 60 26 14 4 52 20 85 35 213 96 453 200 463 200 7 0 12 -5 12 -12 0
-14 -30 -48 -42 -48 -5 0 -47 -18 -94 -40 -47 -22 -89 -40 -93 -40 -4 0 -34
-13 -67 -29 -32 -15 -98 -45 -146 -65 -49 -21 -109 -48 -135 -60 l-46 -23 39
-19 c32 -16 39 -24 37 -47 -1 -17 -14 -37 -32 -53 -16 -13 -33 -33 -36 -44 -4
-11 15 -63 50 -137 31 -65 61 -127 66 -138 20 -43 87 -264 104 -340 9 -44 21
-93 26 -110 4 -16 11 -52 14 -80 4 -27 10 -61 14 -75 5 -14 14 -43 20 -65 7
-22 16 -49 21 -60 5 -11 19 -54 31 -95 12 -41 25 -79 29 -85 4 -5 15 -54 25
-109 21 -120 16 -193 -14 -217 -17 -14 -20 -24 -15 -46 18 -74 190 -562 204
-577 4 -4 13 18 20 50 14 77 26 104 45 104 9 0 20 -12 26 -27 6 -15 16 -41 24
-58 7 -16 16 -39 19 -49 4 -12 10 -16 16 -10 5 5 6 47 0 104 -4 52 -8 581 -8
1174 0 1044 3 1173 28 1111 5 -11 9 -90 9 -175 1 -166 10 -208 31 -146 36 111
113 79 169 -72 60 -162 116 -418 143 -657 16 -147 14 -486 -5 -665 -15 -147
-12 -178 19 -166 12 4 135 -114 383 -368 66 -67 62 -85 -6 -25 -26 24 -36 30
-21 14 63 -70 62 -115 -3 -230 -83 -148 -91 -162 -209 -365 -62 -107 -191
-332 -288 -500 -236 -411 -232 -406 -282 -421 -48 -15 -84 -9 -305 51 -82 22
-189 50 -237 61 l-87 22 -53 -40 c-320 -239 -649 -410 -993 -515 -221 -67
-414 -101 -460 -80 -46 21 -46 65 0 115 23 24 23 39 -1 18 -5 -4 -49 -30 -99
-56 -49 -26 -109 -58 -132 -72 -42 -25 -83 -28 -90 -7 -2 6 13 19 34 28 21 8
99 52 173 96 74 44 142 83 150 87 15 6 176 99 345 198 50 29 106 62 125 72 19
11 80 46 135 78 55 32 217 125 360 207 143 82 276 160 295 172 132 86 422 240
508 269 83 28 66 40 -47 32 -78 -6 -102 -4 -114 6 -14 12 -10 20 31 62 56 57
62 56 -148 27 -329 -44 -400 -56 -400 -69 0 -4 5 -12 12 -19 36 -36 -116 -103
-302 -132 -138 -22 -175 -32 -255 -70 -44 -21 -105 -49 -135 -63 -57 -26 -268
-106 -330 -124 -86 -26 -345 -73 -404 -73 -45 0 -53 -9 -61 -63 -9 -56 -45
-93 -76 -77 -10 6 -21 15 -24 20 -21 34 -25 -15 -25 -317 0 -290 -2 -328 -17
-345 -24 -27 -46 -23 -131 26 -132 74 -210 116 -217 116 -4 0 5 -14 19 -31 38
-45 35 -85 -8 -106 -29 -13 -44 -14 -102 -5 -107 18 -202 39 -279 61 -38 12
-88 27 -110 33 -77 23 -263 97 -377 151 -184 87 -335 181 -613 381 -15 11 -42
5 -467 -108 -112 -30 -145 -32 -191 -10 -41 19 -20 -14 -352 564 -501 870
-455 785 -455 840 0 23 5 51 11 62 11 21 11 21 -20 -1 -28 -20 -36 -32 -32
-53 0 -5 -6 -8 -14 -8 -10 0 -15 10 -15 28 0 24 39 67 231 261 l231 231 -16
168 c-25 252 -26 488 -4 667 15 124 48 325 59 352 5 13 9 37 9 53 0 16 4 31 9
34 5 3 12 23 16 43 25 137 225 603 313 729 11 16 54 81 97 144 131 196 151
221 319 398 121 128 186 188 296 273 99 77 228 169 236 169 3 0 24 13 47 28
42 29 243 142 252 142 2 0 46 20 97 43 51 24 112 52 136 62 24 10 47 26 52 34
10 19 119 430 140 526 12 56 27 92 42 102 24 15 182 18 947 16 551 -2 768 -6
777 -14z m1422 -1517 c20 -30 11 -28 -19 4 -13 15 -18 25 -10 22 8 -2 21 -14
29 -26z m57 -72 c16 -16 24 -30 19 -30 -6 0 -20 14 -32 30 -13 17 -21 30 -19
30 2 0 16 -13 32 -30z m689 -766 c3 -8 2 -12 -4 -9 -6 3 -10 10 -10 16 0 14 7
11 14 -7z m36 -96 c1 -19 -18 -6 -23 15 -2 12 -8 31 -11 42 -4 11 2 4 13 -15
11 -19 20 -38 21 -42z"/>
<path d="M4176 8148 c-21 -74 -27 -101 -22 -106 3 -3 6 0 6 6 0 26 64 82 109
96 l46 15 -68 0 c-46 1 -69 -3 -71 -11z"/>
<path d="M4480 7406 c-159 -90 -381 -215 -475 -266 -33 -18 -64 -36 -70 -40
-5 -4 -26 -17 -45 -28 -19 -11 -208 -120 -420 -242 -593 -343 -695 -391 -738
-348 -19 19 -14 69 9 108 l21 35 -22 -20 c-61 -54 -252 -337 -344 -510 -54
-102 -150 -325 -142 -332 2 -3 12 9 21 26 9 18 32 39 51 48 33 16 35 16 56 -5
13 -13 24 -41 29 -74 4 -29 8 -442 8 -918 1 -887 7 -1195 23 -1166 5 9 15 49
23 88 8 40 28 111 45 158 16 47 54 155 84 240 30 85 82 234 116 330 116 328
131 375 141 440 23 143 29 170 58 285 49 199 60 232 113 353 59 137 94 201
121 223 16 13 17 19 8 37 -7 12 -16 22 -21 22 -5 0 -16 13 -24 29 -18 34 -7
54 38 71 18 7 26 14 20 20 -5 5 -75 38 -155 73 -80 36 -161 71 -180 80 -34 16
-125 56 -207 92 -42 19 -50 37 -19 43 10 2 41 -8 70 -22 28 -14 93 -43 142
-65 50 -21 116 -51 148 -65 32 -14 60 -26 63 -26 2 0 43 -18 90 -41 120 -56
144 -53 204 26 25 33 122 136 216 230 161 161 379 396 452 488 19 23 86 101
151 172 64 72 169 189 233 260 65 72 153 159 197 195 68 56 90 83 63 79 -4 -1
-72 -38 -152 -83z"/>
<path d="M5210 7180 c0 -165 3 -300 6 -300 3 0 15 5 26 11 16 9 36 8 77 -1
171 -37 275 -63 337 -86 38 -14 84 -30 102 -36 18 -5 59 -25 92 -44 68 -40 81
-43 53 -11 -42 47 -83 116 -72 122 30 19 145 -41 249 -129 25 -21 25 -21 7 0
-9 11 -17 25 -17 30 0 6 -14 23 -31 40 -17 16 -54 56 -82 89 -27 33 -89 103
-137 155 -48 52 -127 139 -176 192 -49 54 -90 93 -92 88 -5 -15 -21 -12 -87
14 -33 14 -73 27 -90 31 -19 4 -53 30 -92 71 -34 35 -64 64 -67 64 -4 0 -6
-135 -6 -300z"/>
<path d="M4772 7406 c-46 -46 -60 -54 -102 -59 -27 -3 -67 -18 -90 -32 -23
-15 -48 -24 -55 -21 -16 6 -71 -52 -317 -329 -259 -293 -258 -291 -170 -221
40 32 92 69 115 82 46 26 97 32 97 11 0 -7 -25 -44 -55 -82 -79 -99 -76 -103
24 -33 88 62 219 105 501 165 l85 18 5 235 c3 161 9 242 18 257 13 24 16 63 5
63 -5 0 -32 -24 -61 -54z"/>
<path d="M2769 6643 c-13 -16 -12 -17 4 -4 9 7 17 15 17 17 0 8 -8 3 -21 -13z"/>
<path d="M4695 6479 c-45 -7 -159 -32 -220 -48 -100 -25 -373 -155 -474 -225
-40 -28 -83 -58 -95 -66 -78 -53 -236 -213 -223 -226 3 -3 25 5 49 17 43 22
45 23 548 24 278 1 511 2 518 3 9 2 12 56 12 236 0 195 2 236 15 246 20 17 19
40 -2 41 -49 5 -92 4 -128 -2z"/>
<path d="M5228 6483 c-17 -4 -18 -26 -18 -284 l0 -279 26 16 c23 15 77 17 564
17 296 -1 544 -4 550 -8 48 -30 -66 91 -176 185 -73 63 -228 153 -369 215 -33
15 -73 33 -90 40 -55 24 -179 64 -220 70 -22 4 -53 11 -70 16 -33 10 -170 18
-197 12z"/>
<path d="M3820 5881 c0 -16 -6 -34 -13 -40 -27 -22 -98 -40 -199 -51 -119 -13
-148 -24 -148 -56 0 -24 33 -92 69 -142 11 -17 21 -33 21 -37 0 -4 10 -21 22
-37 12 -18 16 -29 8 -26 -7 2 -21 19 -31 37 -25 46 -30 49 -19 10 15 -52 12
-125 -5 -139 -21 -18 -59 -5 -73 25 -7 14 -17 36 -24 50 -6 14 -14 25 -18 25
-5 0 -38 -67 -70 -145 -98 -236 -127 -666 -71 -1030 9 -59 52 -203 71 -237 6
-10 10 -24 10 -33 0 -12 10 -13 48 -9 72 9 91 17 219 93 65 40 127 77 138 83
11 7 43 27 71 44 28 18 78 46 111 62 43 22 64 39 73 61 6 16 9 34 6 39 -8 13
19 95 33 100 12 4 151 -125 151 -141 0 -5 13 -26 28 -46 16 -20 44 -67 62
-106 19 -38 38 -72 42 -73 5 -2 6 -7 4 -11 -3 -4 1 -25 9 -47 17 -46 19 -130
5 -139 -19 -12 -79 15 -86 38 -9 28 -22 37 -56 37 -27 0 -70 -21 -186 -92 -34
-21 -65 -38 -67 -38 -3 0 -54 -30 -113 -66 -126 -79 -146 -91 -200 -124 -39
-23 -40 -26 -38 -72 2 -46 29 -94 47 -83 4 3 10 1 14 -5 3 -5 1 -10 -5 -10 -6
0 -9 -4 -5 -10 3 -5 12 -7 19 -4 7 3 45 -28 87 -71 201 -206 550 -401 804
-451 45 -8 56 -10 179 -20 l88 -7 -12 22 c-28 54 14 90 81 71 19 -6 35 -10 36
-10 2 0 3 8 4 18 0 14 2 14 9 -3 5 -11 19 -33 32 -49 40 -48 57 -32 154 137
48 84 103 181 122 217 19 36 43 76 52 90 10 14 32 52 49 85 17 33 42 78 56
100 13 22 36 62 49 88 14 26 44 79 66 116 22 38 44 80 49 94 6 14 30 59 56
101 25 41 45 78 45 81 0 4 8 19 18 33 11 15 32 52 49 82 39 71 75 135 135 239
26 46 48 86 48 88 0 2 22 39 48 81 58 92 125 208 256 440 135 241 132 235 230
405 31 54 65 117 75 140 10 23 28 51 40 61 48 43 22 59 -124 76 -155 19 -223
51 -213 101 3 12 -79 14 -474 17 l-476 2 11 -31 c11 -27 10 -32 -8 -45 -48
-35 -121 -46 -293 -42 -146 3 -173 6 -214 25 -34 15 -48 28 -48 42 0 11 5 23
10 26 35 22 -25 25 -460 25 l-470 0 0 -29z m-191 -463 c11 -21 17 -38 13 -38
-4 0 -18 21 -31 48 -26 53 -14 46 18 -10z m89 -160 c18 -32 31 -58 29 -58 -6
0 -63 91 -81 130 -16 34 -16 34 1 11 10 -13 33 -51 51 -83z m82 -139 c0 -6 -4
-7 -10 -4 -5 3 -10 11 -10 16 0 6 5 7 10 4 6 -3 10 -11 10 -16z m40 -73 c13
-22 18 -36 12 -32 -7 4 -22 26 -33 49 -25 49 -12 39 21 -17z m40 -67 c0 -6 -4
-7 -10 -4 -5 3 -10 11 -10 16 0 6 5 7 10 4 6 -3 10 -11 10 -16z m50 -97 c0 -4
9 -18 20 -32 21 -27 26 -45 10 -35 -11 7 -70 119 -70 132 0 10 40 -55 40 -65z
m84 -143 c20 -33 36 -63 36 -66 0 -13 -30 21 -36 40 -4 12 -15 34 -25 49 -18
25 -23 38 -15 38 2 0 20 -27 40 -61z m56 -89 c0 -5 -2 -10 -4 -10 -3 0 -8 5
-11 10 -3 6 -1 10 4 10 6 0 11 -4 11 -10z m465 -831 c34 -59 44 -82 26 -63
-14 13 -73 124 -67 124 3 0 21 -27 41 -61z m65 -110 c0 -6 -4 -7 -10 -4 -5 3
-10 11 -10 16 0 6 5 7 10 4 6 -3 10 -11 10 -16z m20 -40 c0 -6 -4 -7 -10 -4
-5 3 -10 11 -10 16 0 6 5 7 10 4 6 -3 10 -11 10 -16z m27 -44 c6 -14 8 -25 4
-25 -4 0 -13 11 -19 25 -6 14 -8 25 -4 25 4 0 12 -11 19 -25z m33 -55 c0 -5
-2 -10 -4 -10 -3 0 -8 5 -11 10 -3 6 -1 10 4 10 6 0 11 -4 11 -10z m20 -41 c0
-6 -4 -7 -10 -4 -5 3 -10 11 -10 16 0 6 5 7 10 4 6 -3 10 -11 10 -16z m40 -70
c0 -18 -10 -8 -25 24 l-16 32 21 -24 c11 -13 20 -27 20 -32z m38 -74 c-3 -3
-9 2 -12 12 -6 14 -5 15 5 6 7 -7 10 -15 7 -18z m35 -55 c8 -29 0 -24 -19 13
-14 27 -15 30 -2 19 9 -7 18 -22 21 -32z m37 -60 c0 -5 -2 -10 -4 -10 -3 0 -8
5 -11 10 -3 6 -1 10 4 10 6 0 11 -4 11 -10z m18 -45 c-3 -3 -9 2 -12 12 -6 14
-5 15 5 6 7 -7 10 -15 7 -18z m22 -25 c0 -5 -2 -10 -4 -10 -3 0 -8 5 -11 10
-3 6 -1 10 4 10 6 0 11 -4 11 -10z m25 -50 c22 -42 18 -51 -5 -12 -20 33 -24
42 -15 42 2 0 11 -13 20 -30z"/>
<path d="M6504 5497 c-6 -12 -55 -98 -109 -192 -133 -231 -131 -229 -184 -324
-25 -46 -61 -109 -79 -140 -17 -31 -44 -78 -58 -106 -14 -27 -36 -63 -48 -80
-30 -41 -76 -120 -103 -178 l-23 -49 52 42 c28 22 56 39 61 37 25 -8 31 -36
17 -90 -16 -70 -11 -85 28 -79 22 3 49 -7 103 -39 41 -23 83 -47 94 -53 33
-18 247 -147 285 -172 19 -12 47 -26 62 -29 62 -15 74 4 126 200 45 169 52
236 51 498 0 238 -10 348 -42 484 -10 45 -11 64 -3 67 7 3 5 10 -6 19 -18 15
-25 33 -9 23 18 -12 -2 35 -21 48 -11 8 -18 20 -17 27 4 22 -12 79 -21 79 -5
0 -28 -25 -50 -56 -23 -30 -47 -53 -53 -51 -22 7 -36 50 -30 94 6 46 -5 57
-23 20z"/>
<path d="M2698 4323 c-31 -87 -77 -220 -103 -295 l-45 -138 20 -20 c18 -18 20
-33 20 -128 0 -68 -6 -127 -15 -158 -8 -27 -15 -58 -15 -68 0 -19 1 -19 23 1
32 30 155 110 287 188 63 37 122 74 131 82 9 8 19 36 23 63 4 27 10 50 14 52
4 2 -3 30 -15 63 -13 34 -21 46 -17 28 3 -18 3 -33 0 -33 -10 0 -32 62 -46
128 -7 34 -17 65 -21 68 -5 3 -9 15 -9 28 0 12 -5 27 -10 32 -6 6 -14 59 -17
117 -6 101 -16 130 -30 90 -23 -67 -75 -164 -86 -160 -28 9 -38 51 -32 135 3
45 5 82 3 82 -2 0 -29 -71 -60 -157z"/>
<path d="M7146 4352 c-16 -64 -43 -166 -62 -226 -19 -60 -34 -114 -34 -120 0
-6 -6 -23 -14 -37 -12 -23 -25 -83 -31 -142 -1 -10 2 -20 6 -23 5 -2 6 -11 3
-18 -4 -10 5 -13 34 -12 28 0 49 -7 73 -25 19 -14 52 -36 74 -48 22 -12 58
-33 80 -46 22 -13 47 -27 55 -31 8 -5 42 -25 75 -46 82 -51 89 -41 45 67 -5
11 -17 47 -28 80 -11 33 -37 105 -57 160 -20 55 -42 120 -50 145 -7 25 -22 68
-33 95 -11 28 -20 54 -20 58 0 4 -12 38 -25 75 -14 37 -31 97 -37 135 -7 37
-16 69 -20 72 -4 2 -19 -48 -34 -113z"/>
<path d="M2977 4099 c4 -13 8 -18 11 -10 2 7 -1 18 -6 23 -8 8 -9 4 -5 -13z"/>
<path d="M5667 4032 c-25 -43 -50 -87 -54 -98 -4 -10 -50 -95 -103 -189 -53
-93 -112 -197 -130 -230 -18 -33 -41 -72 -51 -87 -11 -14 -19 -28 -19 -31 0
-3 -34 -64 -75 -136 -42 -72 -80 -142 -85 -156 -9 -24 -8 -24 38 -19 70 7 78
-3 52 -65 -25 -57 -23 -68 10 -51 12 6 86 22 165 35 170 29 230 48 390 125
221 107 401 243 548 413 50 58 100 145 91 159 -11 17 -240 158 -372 229 -18 9
-39 22 -46 28 -30 25 -149 81 -173 81 -15 0 -35 -12 -51 -30 -27 -31 -65 -39
-78 -18 -4 6 -7 36 -6 65 1 29 0 53 -1 53 -2 0 -24 -35 -50 -78z"/>
<path d="M3125 3424 c-44 -26 -96 -55 -115 -66 -19 -11 -42 -26 -51 -34 -8 -8
-19 -14 -24 -14 -4 0 -23 -11 -41 -25 -18 -14 -35 -25 -38 -25 -8 0 -126 -72
-126 -77 0 -3 28 -1 63 3 80 10 113 8 277 -16 74 -11 171 -25 215 -31 44 -6
99 -15 122 -20 23 -5 57 -9 75 -9 18 0 65 -9 103 -20 38 -11 72 -20 74 -20 3
0 -40 46 -95 103 -54 57 -139 147 -187 200 -85 93 -90 97 -130 97 -32 0 -62
-12 -122 -46z"/>
<path d="M6699 3388 c-41 -46 -86 -96 -100 -113 -13 -16 -69 -74 -124 -127
-55 -54 -95 -98 -89 -98 7 0 36 11 66 25 29 13 83 29 118 34 567 83 638 92
700 86 41 -4 61 -3 55 3 -14 13 -253 162 -260 162 -3 0 -29 15 -58 33 -95 60
-136 77 -185 77 -47 0 -49 -1 -123 -82z"/>
<path d="M2930 3133 c0 -5 18 -26 40 -47 36 -34 38 -39 24 -53 -13 -13 -33
-14 -125 -8 -62 4 -109 3 -109 -2 0 -14 23 -33 40 -33 27 -1 174 -65 233 -103
32 -20 60 -37 62 -37 3 0 24 -12 48 -27 23 -15 71 -43 107 -63 99 -56 159 -90
212 -121 27 -16 53 -29 58 -29 6 0 10 -4 10 -9 0 -5 15 -14 33 -22 17 -7 43
-20 57 -30 28 -19 303 -180 360 -211 19 -10 42 -22 50 -27 8 -5 60 -35 115
-67 55 -31 116 -67 135 -79 19 -13 60 -36 90 -52 66 -36 84 -46 275 -159 198
-116 253 -144 270 -137 17 6 18 43 15 446 -1 197 1 232 15 254 25 37 13 53
-40 53 -48 0 -196 26 -345 61 -25 6 -56 13 -70 16 -14 3 -29 9 -35 13 -5 4
-26 11 -45 15 -19 4 -41 11 -50 15 -8 5 -37 16 -65 26 -27 9 -106 44 -175 77
-134 64 -227 97 -274 97 -16 0 -45 4 -65 9 -20 5 -63 15 -96 21 -77 16 -178
56 -200 81 -15 15 -16 21 -5 34 7 9 10 18 7 21 -9 9 -77 21 -272 49 -247 35
-285 38 -285 28z"/>
<path d="M8110 5671 c0 -6 4 -13 10 -16 6 -3 7 1 4 9 -7 18 -14 21 -14 7z"/>
<path d="M3030 2140 c-22 -7 -21 -8 13 -9 21 -1 48 -6 60 -12 21 -10 21 -9 -2
10 -25 22 -32 23 -71 11z"/>
<path d="M6979 2133 c-12 -15 -12 -16 4 -10 10 4 33 7 50 8 27 0 29 2 12 9
-31 13 -51 11 -66 -7z"/>
</g>
</svg>
